<svg xmlns="http://www.w3.org/2000/svg" width="14px" height="25px" viewBox="0 0 14 25"><path fill="#FFF" fill-rule="evenodd" d="M8.856 25H3.981V14.072H0V9.546h3.975v-.178c0-1.199-.014-2.4.004-3.599.014-.94.187-1.853.587-2.712C5.223 1.644 6.31.73 7.796.289c.914-.273 1.852-.33 2.802-.265.359.026.72.034 1.08.066.352.03.705.08 1.057.123.173.02.345.057.518.072.104.01.138.046.137.15-.006.534-.008 1.066-.008 1.6 0 .647.004 1.294.006 1.942v.182h-.37c-.653.004-1.307-.021-1.956.02-.862.057-1.579.395-1.966 1.228-.148.315-.23.655-.232 1.002C8.85 7.422 8.86 8.436 8.86 9.45c0 .024.002.047.004.09H13.2l-.695 4.529H8.856V25z"></path></svg>
