<svg xmlns="http://www.w3.org/2000/svg" width="25px" height="25px" viewBox="0 0 25 25"><path fill="#FFF" fill-rule="evenodd" d="M2.257 12.47h.032c0 1.324-.005 2.648.004 3.972.002.383.026.768.065 1.148.051.505.103 1.014.198 1.513.19 1.016.695 1.855 1.506 2.506.426.341.903.599 1.427.747.745.208 1.518.27 2.287.328.463.037.93.071 1.393.065 3.003-.046 6.01.142 9.007-.161.334-.035.669-.088.997-.156.782-.166 1.466-.517 2.045-1.08.373-.361.667-.767.897-1.23.3-.6.395-1.251.476-1.901.075-.598.107-1.203.134-1.806.027-.59.033-1.182.033-1.774 0-.57-.028-1.14-.027-1.71.002-.907.023-1.814.028-2.72.001-.298-.02-.597-.03-.894-.012-.292-.015-.585-.032-.876-.04-.613-.07-1.227-.137-1.837-.042-.386-.115-.773-.225-1.145-.221-.744-.626-1.38-1.21-1.902-.455-.408-.97-.707-1.551-.886-.778-.24-1.587-.297-2.392-.356-.583-.04-1.17-.06-1.754-.065-1.177-.01-2.356-.012-3.533 0-1.285.01-2.57.044-3.856.06-.642.007-1.272.1-1.905.196-.688.103-1.32.347-1.887.75-.72.513-1.233 1.184-1.527 2.013-.263.748-.324 1.537-.394 2.32-.045.516-.062 1.037-.066 1.555-.01 1.108-.003 2.217-.003 3.325zm22.72-.003c0 .945.005 1.891 0 2.836-.004.538-.014 1.074-.036 1.61-.02.518-.043 1.038-.098 1.551-.124 1.166-.417 2.282-1.044 3.287-.368.59-.836 1.095-1.367 1.544-.712.605-1.523 1.03-2.424 1.261-.52.134-1.057.224-1.593.276-.683.065-1.37.089-2.056.101-1.611.033-3.224.054-4.836.066-.846.006-1.694-.014-2.541-.03-.606-.014-1.213-.028-1.818-.068-.976-.065-1.937-.21-2.854-.57-.657-.258-1.26-.61-1.8-1.075-.692-.595-1.257-1.286-1.65-2.11-.28-.59-.488-1.21-.587-1.857-.077-.496-.122-1-.164-1.502-.028-.323-.02-.649-.037-.973-.125-2.38-.046-4.764-.06-7.148-.005-.769.015-1.54.067-2.307.074-1.068.196-2.133.613-3.135.248-.594.57-1.143.982-1.639.608-.73 1.333-1.314 2.19-1.726C4.48.561 5.131.35 5.813.262 6.394.187 6.978.124 7.563.1 8.613.057 9.667.045 10.719.028 11.65.012 12.587 0 13.52 0c.829.001 1.66.014 2.491.032.607.013 1.214.025 1.818.067.894.06 1.78.185 2.628.487.887.315 1.67.795 2.352 1.455.938.91 1.531 2.003 1.826 3.261.104.442.172.896.205 1.347.056.755.09 1.513.1 2.268.016 1.184.005 2.367.005 3.55h.032zm-16.624.045c-.024 2.288 1.867 4.082 3.977 4.143 2.482.069 4.339-1.867 4.326-4.177-.014-2.3-1.807-4.053-4.006-4.13-2.465-.087-4.341 1.933-4.297 4.164m-2.25.009c-.07-3.488 2.858-6.579 6.68-6.426 3.272.13 6.184 2.83 6.126 6.542-.052 3.346-2.805 6.419-6.729 6.266-3.21-.127-6.104-2.821-6.076-6.382m11.572-6.703c-.013-.812.663-1.496 1.498-1.483.824.016 1.49.638 1.492 1.498 0 .877-.677 1.494-1.525 1.498-.778.003-1.501-.676-1.465-1.513"></path></svg>
