<svg xmlns="http://www.w3.org/2000/svg" width="78px" height="18px" viewBox="0 0 79 18"><path fill="#fff" d="M76.15 13.09c-1.232 0-2.231 1.009-2.231 2.254s.999 2.254 2.23 2.254c1.233 0 2.232-1.01 2.232-2.254 0-1.245-.999-2.254-2.231-2.254zm-7.342-1.743c0-1.705-1.442-3.086-3.22-3.086-1.78 0-3.222 1.381-3.222 3.086 0 1.704 1.442 3.086 3.221 3.086 1.78 0 3.221-1.382 3.221-3.086zm.012-5.998h3.555v11.996H68.82v-.767c-1.004.692-2.216 1.099-3.524 1.099-3.46 0-6.265-2.834-6.265-6.33s2.805-6.33 6.265-6.33c1.308 0 2.52.407 3.524 1.1v-.768zM40.37 6.91V5.35h-3.64v11.995h3.648v-5.6c0-1.89 2.027-2.905 3.434-2.905l.042.001V5.35c-1.444 0-2.772.625-3.484 1.562zm-9.067 4.436c0-1.705-1.443-3.086-3.222-3.086s-3.221 1.382-3.221 3.086c0 1.705 1.442 3.086 3.221 3.086 1.78 0 3.222-1.381 3.222-3.086zm.011-5.998h3.556v11.996h-3.556v-.767c-1.004.692-2.216 1.099-3.524 1.099-3.46 0-6.265-2.834-6.265-6.33s2.805-6.33 6.265-6.33c1.308 0 2.52.407 3.524 1.1v-.768zm21.4-.323c-1.42 0-2.765.446-3.664 1.675V5.35h-3.54v11.995h3.584V11.04c0-1.824 1.21-2.717 2.669-2.717 1.562 0 2.46.942 2.46 2.692v6.329h3.551V9.716c0-2.791-2.197-4.69-5.06-4.69zM16.345 17.345h3.721V.003h-3.721v17.342zM0 17.349h3.94V0H0v17.35zM13.782 0c0 3.756-1.45 7.25-4.031 9.847l5.446 7.503h-4.866L4.41 9.196 5.94 8.04C8.473 6.123 9.926 3.193 9.926 0h3.856z"></path></svg>
