<svg width="100%" height="100%" viewBox="0 0 137 50" xmlns="http://www.w3.org/2000/svg"><g stroke="none" stroke-width="1" fill="none" fill-rule="evenodd"><g transform="translate(-345.000000, -62.000000)"><g transform="translate(0.000000, 42.000000)"><g transform="translate(345.000000, 20.000000)"><g><path d="M128.822964,4.14262295 C128.198763,1.95655738 126.247527,0.0540983607 123.633988,0 L14.1709882,0 C11.5396154,0.0598360656 9.5932426,1.97622951 8.87743787,4.14262295 C6.2541716,10.7811475 0,17.342623 0,24.6385246 C0,31.9344262 6.2541716,38.4967213 8.87743787,45.1352459 C9.59243195,47.3 11.5396154,49.2139344 14.1709882,49.2729508 L123.633988,49.2729508 C126.247527,49.2188525 128.196331,47.3188525 128.822964,45.1352459 C131.091166,38.4327869 136.429302,31.8360656 136.429302,24.6385246 C136.429302,17.4418033 131.091166,10.845082 128.822964,4.14262295" fill="#EA4E68"></path><g transform="translate(14.591716, 12.289344)" fill="#FEFEFE"><path d="M0.533165089,2.30098361 C0.533165089,1.27065574 1.39407633,0.432131148 2.4130645,0.432131148 L13.0431296,0.432131148 C13.9972657,0.432131148 14.7625201,1.20590164 14.7625201,2.17229508 C14.7625201,3.17147541 13.9972657,3.94278689 13.0431296,3.94278689 L4.29053195,3.94278689 L4.29053195,9.93459016 L13.0431296,9.93459016 C13.9972657,9.93459016 14.7625201,10.7059016 14.7625201,11.7042623 C14.7625201,12.6706557 13.9972657,13.4427869 13.0431296,13.4427869 L4.29053195,13.4427869 L4.29053195,21.6878689 C4.29053195,22.7181967 3.43205266,23.5886885 2.4130645,23.5886885 C1.39407633,23.5886885 0.533165089,22.7181967 0.533165089,21.6878689 L0.533165089,2.30098361 Z"></path><path d="M24.6393284,12.7013934 L17.058932,3.55795082 C16.7395355,3.1702459 16.6122633,2.75057377 16.6122633,2.33254098 C16.6122633,1.2702459 17.4415592,0.465327869 18.4605473,0.465327869 C19.0336775,0.465327869 19.5435769,0.690737705 19.9237722,1.1407377 L26.5824586,9.16122951 L33.3027544,1.10877049 C33.6197189,0.690737705 34.1612337,0.465327869 34.6711331,0.465327869 C35.6585059,0.465327869 36.392145,1.2702459 36.392145,2.23581967 C36.392145,2.68663934 36.2632515,3.04237705 36.0095178,3.36204918 L28.3966953,12.5415574 L28.3966953,21.6882787 C28.3966953,22.7186066 27.5365947,23.5882787 26.5167959,23.5882787 C25.4978077,23.5882787 24.6393284,22.7186066 24.6393284,21.6882787 L24.6393284,12.7013934 Z"></path><path d="M66.0810988,20.0695902 C70.696945,20.0695902 73.6177201,16.7072951 73.6614953,12.437623 L73.6614953,11.6868033 C73.6614953,7.37286885 70.7309923,3.92614754 66.0810988,3.92614754 L62.0359509,3.92614754 L62.0359509,20.0695902 L66.0810988,20.0695902 Z M58.278584,2.28434426 C58.278584,1.25401639 59.1386846,0.414672131 60.1584834,0.414672131 L66.0810988,0.414672131 C72.8978621,0.414672131 77.5161402,5.40729508 77.5161402,11.6868033 L77.5161402,12.437623 C77.4691225,18.6728689 72.8621935,23.6122131 66.0494834,23.6122131 L60.1584834,23.6122131 C59.1386846,23.6122131 58.278584,22.7433607 58.278584,21.7122131 L58.278584,2.28434426 Z"></path><path d="M80.2029615,2.36418033 C80.2029615,1.30188525 81.0638728,0.465819672 82.0828609,0.465819672 C83.1018491,0.465819672 83.9603284,1.30188525 83.9603284,2.36418033 L83.9603284,21.6879508 C83.9603284,22.7182787 83.1018491,23.5887705 82.0828609,23.5887705 C81.0638728,23.5887705 80.2029615,22.7182787 80.2029615,21.6879508 L80.2029615,2.36418033 Z"></path><path d="M38.2418882,2.36418033 C38.2418882,1.30188525 39.1027994,0.465819672 40.1217876,0.465819672 C41.1407757,0.465819672 41.999255,1.30188525 41.999255,2.36418033 L41.999255,21.6879508 C41.999255,22.7182787 41.1407757,23.5887705 40.1217876,23.5887705 C39.1027994,23.5887705 38.2418882,22.7182787 38.2418882,21.6879508 L38.2418882,2.36418033 Z"></path><path d="M51.8745231,2.36418033 C51.8745231,1.30188525 52.7354343,0.465819672 53.7544225,0.465819672 C54.7734107,0.465819672 55.6318899,1.30188525 55.6318899,2.36418033 L55.6318899,21.6879508 C55.6318899,22.7182787 54.7734107,23.5887705 53.7544225,23.5887705 C52.7354343,23.5887705 51.8745231,22.7182787 51.8745231,21.6879508 L51.8745231,2.36418033 Z"></path><path d="M38.7129574,3.77459016 C37.9809396,2.74180328 38.1268568,1.41803279 38.9829041,0.812295082 C39.8373302,0.206557377 41.1327503,0.508196721 41.864768,1.54180328 L55.1691704,20.3221311 C55.8784899,21.3254098 55.757703,22.6803279 54.9024663,23.2860656 C54.0472296,23.8909836 52.7258686,23.5581967 52.0173598,22.5557377 L38.7129574,3.77459016 Z"></path><path d="M107.243843,18.8713115 C108.655997,16.9434426 109.524204,14.5836066 109.522585,12.0106557 C109.522585,5.61065574 104.394405,0.42704918 98.0672751,0.424590164 C91.737713,0.42704918 86.6095355,5.61065574 86.6079142,12.0106557 C86.6095355,18.4098361 91.737713,23.595082 98.0672751,23.595082 C98.8009142,23.595082 99.5207722,23.5245902 100.218743,23.3901639 C101.210169,23.197541 101.858689,22.2295082 101.669808,21.2286885 C101.480115,20.2262295 100.521926,19.5688525 99.5305,19.7614754 C99.0587012,19.8508197 98.5706893,19.9 98.0672751,19.9 C95.9060799,19.9 93.9661923,19.0196721 92.5483639,17.5901639 C91.1329675,16.154918 90.2639497,14.195082 90.2623284,12.0106557 C90.2639497,9.82622951 91.1329675,7.86393443 92.5483639,6.43032787 C93.9661923,5.00081967 95.9060799,4.12213115 98.0672751,4.1204918 C100.226849,4.12213115 102.165926,5.00081967 103.583754,6.43032787 C104.99753,7.86393443 105.868169,9.82622951 105.868169,12.0106557 C105.868169,13.4540984 105.465275,14.7844262 104.801352,15.9442623 L102.256719,12.8967213 C101.604956,12.1180328 100.45221,12.0196721 99.6812811,12.6762295 C98.9095414,13.3352459 98.8122633,14.5016393 99.463216,15.2803279 L105.778997,22.8434426 C106.43076,23.6229508 107.582695,23.7213115 108.354435,23.0631148 C109.125364,22.4057377 109.222642,21.2393443 108.5725,20.4590164 L107.243843,18.8713115 Z"></path></g></g></g></g></g></g></svg>
