<svg xmlns="http://www.w3.org/2000/svg" width="39px" height="30px" viewBox="0 0 39 30"><g fill-rule="evenodd" fill="#fff"><path fill-rule="nonzero" d="M7.207 29.918v-1.754c.024-.299-.103-.592-.35-.804-.248-.213-.59-.325-.941-.307-.463-.026-.905.164-1.154.497-.228-.323-.644-.514-1.086-.497-.384-.017-.75.141-.962.415v-.345H2v2.795h.721V28.38c-.03-.193.041-.389.197-.532.155-.144.378-.221.607-.21.474 0 .714.263.714.736v1.556h.722v-1.55c-.03-.193.042-.388.198-.531.155-.144.377-.221.606-.212.487 0 .72.264.72.737v1.556l.722-.012zm10.672-2.795h-1.175v-.848h-.721v.848h-.653v.555h.667v1.287c0 .649.295 1.035 1.14 1.035.316 0 .625-.074.893-.216l-.206-.52c-.192.096-.409.15-.632.157-.343 0-.474-.187-.474-.468v-1.275h1.168l-.007-.555zm6.093-.07c-.355-.01-.687.148-.865.409v-.34h-.708v2.796h.715v-1.567c0-.462.233-.72.687-.72.152-.001.304.023.446.07l.22-.584c-.163-.05-.335-.075-.508-.076l.013.012zm-9.212.292c-.404-.205-.87-.306-1.34-.292-.83 0-1.373.339-1.373.894 0 .456.398.737 1.133.825l.344.04c.391.048.577.135.577.293 0 .217-.261.34-.749.34-.392.01-.777-.094-1.092-.293l-.344.474c.416.247.915.374 1.422.362.948 0 1.498-.38 1.498-.912s-.433-.749-1.147-.836l-.344-.041c-.309-.035-.556-.088-.556-.275 0-.187.233-.328.625-.328.362.004.716.087 1.03.24l.316-.491zm19.135-.292c-.354-.01-.687.148-.865.409v-.34h-.708v2.796h.715v-1.567c0-.462.233-.72.687-.72.152-.001.304.023.446.07l.22-.584c-.163-.05-.335-.075-.508-.076l.013.012zm-9.205 1.462c-.017.397.163.782.497 1.06.333.278.789.424 1.255.402.429.018.85-.1 1.182-.334l-.344-.491c-.247.16-.548.249-.859.251-.547-.037-.97-.427-.97-.894 0-.468.423-.857.97-.895.31.003.612.091.859.251l.344-.49c-.332-.234-.753-.353-1.182-.334-.466-.023-.922.123-1.255.401-.334.279-.514.664-.497 1.06v.013zm6.691 0v-1.392h-.714v.339c-.246-.27-.63-.422-1.03-.41-.95 0-1.718.655-1.718 1.463 0 .807.769 1.462 1.717 1.462.401.012.785-.14 1.03-.41v.34h.715v-1.392zm-2.658 0c.031-.46.488-.812 1.028-.795.54.017.964.398.955.858-.009.46-.447.829-.987.831-.275.003-.54-.092-.728-.262-.19-.17-.287-.399-.268-.632zM20.1 27.053c-.948.01-1.706.675-1.693 1.482.013.808.793 1.453 1.741 1.442.495.021.98-.114 1.364-.38l-.343-.45c-.272.184-.608.287-.955.292-.491.036-.927-.268-.983-.685h2.439v-.234c0-.877-.639-1.462-1.56-1.462l-.01-.005zm0 .543c.216-.003.425.066.581.193.156.127.246.302.25.486h-1.717c.026-.39.414-.692.873-.679h.013zM38 28.52V26h-.687v1.462c-.246-.27-.63-.422-1.03-.41-.949 0-1.718.655-1.718 1.463 0 .807.77 1.462 1.718 1.462.4.012.784-.14 1.03-.41v.34H38V28.52zm-2.641 0c.031-.458.488-.811 1.028-.794.54.017.964.398.955.858-.009.46-.447.829-.987.831-.275.003-.54-.092-.728-.262-.19-.17-.287-.399-.268-.633zm-24.123 0v-1.397h-.714v.339c-.246-.27-.63-.422-1.03-.41-.95 0-1.718.655-1.718 1.463 0 .807.769 1.462 1.717 1.462.401.012.785-.14 1.03-.41v.34h.715V28.52zm-2.658 0c.031-.458.488-.811 1.028-.794.54.017.964.398.955.858-.009.46-.447.829-.987.831-.276.005-.542-.09-.733-.26-.19-.17-.289-.4-.27-.635h.007z"></path><path d="M23 11.836c0-3.051-1.316-5.937-3.585-7.983-2.261 2.036-3.573 4.906-3.582 7.94l.003.03-.003.046c.006 3.038 1.319 5.91 3.582 7.949C21.684 17.772 23 14.885 23 11.836"></path><path d="M14.832 11.836c-.004-3.632 1.686-7.063 4.583-9.307-.274-.212-.557-.405-.843-.59C13.715-1.206 7.192-.477 3.185 3.805c-4.247 4.534-4.247 11.525 0 16.06 4.008 4.282 10.53 5.01 15.388 1.867.285-.185.568-.379.842-.59-2.896-2.244-4.586-5.674-4.583-9.306"></path><path d="M32.075 1.188c-3.819-1.83-8.308-1.52-11.818.75-.287.187-.57.38-.843.592C22.309 4.773 24 8.204 24 11.835c0 3.63-1.691 7.062-4.586 9.306.273.212.556.406.843.59 3.51 2.27 7.998 2.582 11.818.75 4.133-1.98 6.756-6.112 6.756-10.645v-.002c0-4.532-2.623-8.666-6.756-10.646"></path></g></svg>
