<svg xmlns="http://www.w3.org/2000/svg" width="47px" height="47px" viewBox="0 0 100 99.99999"><g fill-rule="evenodd" fill="#fff"><path fill-rule="nonzero" d="M50.08 1c-18 .03-35.8 10.18-44.73 29.03-3.2 6.74-3.76 9.07-4.2 17.33-.4 7.78-.1 10.86 1.65 16.6 4.93 16.25 17.08 28.52 33.38 33.7 5.74 1.83 21.5 1.77 27.8-.1 20.57-6.12 35.1-25.62 35.02-47-.05-13.75-4.04-23.8-13.48-33.93C75.62 6.03 62.8.98 50.08 1zm2.4 3.32c.43 0 .75.02.75.1 0 .05-.8 1.78-1.8 3.83l-1.8 3.73.1 2.14.12 2.14-.8.14c-1.87.3-1.97.26-2.12-1.03-.08-.64-.14-1.6-.14-2.15-.02-.84-.3-1.48-2.02-4.36-1.1-1.86-2-3.48-2-3.6 0-.13.43-.3.95-.38.52-.08 1.16-.2 1.42-.26.42-.1.64.18 1.74 2.23.68 1.3 1.27 2.35 1.3 2.35s.48-1.04 1.03-2.3c.95-2.24 1.02-2.33 1.77-2.45.47-.08 1.03-.13 1.47-.13zm8.83 1.7c1.47-.02 3.05.45 4.12 1.35l.72.6-.48 1.18c-.27.64-.56 1.16-.64 1.16-.1 0-.4-.24-.67-.54-.72-.76-2.25-1.3-3.2-1.14-1.3.25-2.32 1.8-2.53 3.86-.15 1.5.32 2.53 1.4 3.04 1.22.6 1.8.47 2.1-.43.34-1.03.24-1.24-.68-1.54-.7-.23-.76-.3-.7-1.03.14-1.6.05-1.57 2.4-.88 1.17.34 2.18.68 2.24.74.1.1-1.23 5.06-1.5 5.5-.25.4-3.25.47-4.4.1-1.38-.46-2.54-1.34-3.16-2.4-.45-.8-.53-1.24-.53-2.84 0-2.83 1.1-4.95 3.13-6.14.66-.4 1.5-.6 2.38-.6zm-25.05 1.1c.54.04 1 .18 1.42.43 1.57.92 2.28 3.6 1.34 5.14l-.42.7 1.8 1.4c1 .77 1.84 1.5 1.88 1.62s-.46.54-1.1.92l-1.2.68-1.86-1.52c-2.56-2.1-2.76-2.03-1.75.58.36.94.6 1.8.54 1.9-.12.18-2.02.9-2.4.9-.1 0-.22-.13-.28-.3l-2-5.23c-1.03-2.73-1.88-5.1-1.88-5.25 0-.16 1-.66 2.26-1.14 1.62-.6 2.75-.87 3.65-.83zm-.83 2.55c-.13 0-.3.02-.48.04-.48.08-.96.22-1.05.32-.1.1.06.85.37 1.68l.56 1.5.84-.44c.46-.24.9-.6.97-.8.25-.63.15-1.13-.34-1.75-.3-.4-.5-.53-.88-.53zm-10.75 2.4c.12-.08.66.23 1.2.7l.97.88-.64.5c-.35.27-.93.76-1.3 1.07l-.64.58 2.82 3.46c1.54 1.9 2.8 3.56 2.8 3.68 0 .18-1.83 1.82-2.03 1.82-.04 0-1.36-1.6-2.94-3.56s-2.9-3.55-2.95-3.55-.6.42-1.2.93l-1.1.94-.77-.88c-.42-.5-.73-1-.7-1.13.03-.18 4.73-4.1 6.5-5.42zm49.62.23c1.37.06 2.7.7 3.92 1.93 1.4 1.4 1.45 1.73.43 2.77-.46.48-.9.87-1 .87-.07 0-.27-.3-.42-.67-.15-.36-.66-1-1.14-1.44-1.43-1.3-3.14-.96-4.53.86-1.33 1.74-1.37 3.6-.1 4.67.9.76 1.37.72 2.07-.2.54-.7.56-.78.2-1-1.22-.7-1.25-.78-.72-1.82.27-.53.5-1 .55-1.04.12-.14 3.77 2.67 3.72 2.86-.17.6-3.34 4.66-3.62 4.64-.2 0-.8-.13-1.35-.28-1.97-.53-3.9-2.2-4.43-3.8-.86-2.6 1.08-6.52 3.88-7.82.84-.4 1.68-.57 2.5-.54zM50 20.27c16.4 0 29.68 13.3 29.68 29.73S66.38 79.73 50 79.73 20.32 66.43 20.32 50 33.62 20.27 50 20.27zm-.3 3.85c-7.68 0-13.87 4.68-13.87 10.5v7.97h-.37c-2.83 0-5.1 2.26-5.1 5.1V68.4c0 2.82 2.27 5.1 5.1 5.1h29.08c2.82 0 5.1-2.27 5.1-5.1V47.7c0-2.84-2.27-5.1-5.1-5.1h-.37v-7.97c0-5.83-6.2-10.52-13.87-10.52h-.6zm-29.24.47c.06.05-.1.96-.34 2.02-.25 1.07-.45 2.06-.45 2.2s.92.83 2.05 1.5l2.06 1.22-2.5.2c-2.07.16-2.5.25-2.5.55 0 .2-.24 1.27-.5 2.4l-.5 2.06-.9-2.14c-.48-1.17-1-2.18-1.16-2.24-.15-.06-1.3-.02-2.52.1-2.03.17-2.2.15-1.82-.16 2.3-1.86 3.2-2.8 3.1-3.22-.04-.25-.45-1.3-.9-2.3-.75-1.74-.77-1.85-.3-1.55.27.18 1.22.75 2.1 1.27l1.62.96 1.68-1.5c.92-.82 1.72-1.45 1.78-1.4zm58.86 0c.07-.07.87.55 1.78 1.37l1.67 1.5 1.95-1.17 2.1-1.24c.1-.05-.23.82-.7 1.93-.5 1.1-.9 2.14-.9 2.3s.7.88 1.5 1.6l1.8 1.52c.2.18-.15.2-1.34.1-3.38-.35-3.2-.4-3.96 1.3-1.4 3.2-1.2 3.14-1.8.5l-.53-2.34-2.45-.22-2.44-.22 2-1.2 2.1-1.28c.05-.05-.13-1.04-.4-2.22-.27-1.17-.44-2.2-.38-2.25zm-29.55 4.47h.3c4.94 0 8.92 2.75 8.92 6.16v7.36H40.84v-7.37c0-3.4 3.98-6.16 8.92-6.16zm38.9 13.84l.75 2.38.74 2.36 2.37.06 2.37.06-1.83 1.32c-1 .72-1.84 1.43-1.84 1.57s.3 1.14.67 2.22c.36 1.08.63 2 .6 2.04s-.9-.5-1.93-1.24c-1-.73-1.95-1.27-2.1-1.2-.13.1-.9.62-1.68 1.2-1.57 1.12-2 1.4-2 1.27 0-.05.3-.97.65-2.06s.67-2.08.67-2.22-.82-.85-1.83-1.57l-1.85-1.32 2.35-.06 2.35-.06.76-2.37.78-2.36zm-77 .48c.07.1.42 1.08.77 2.22l.64 2.05h4.89l-1.87 1.37c-1.03.74-1.9 1.4-1.95 1.42-.04.03.23 1.04.6 2.24s.65 2.2.62 2.24c-.04.03-.9-.55-1.9-1.28-1.1-.8-1.92-1.28-2.1-1.18l-1.86 1.35c-.87.66-1.64 1.2-1.7 1.2s.2-.88.55-1.95c.36-1.06.65-2.1.65-2.3 0-.2-.8-.94-1.83-1.67l-1.82-1.32 2.37-.06 2.37-.06.7-2.22c.4-1.2.8-2.14.87-2.05zM50 51c2.23 0 4.05 1.68 4.05 3.75 0 1.22-.65 2.37-1.73 3.07v5.56c0 1.3-1.03 2.33-2.32 2.33s-2.32-1.03-2.32-2.32v-5.56c-1.08-.7-1.73-1.85-1.73-3.07 0-2.07 1.8-3.75 4.05-3.75zM19.3 61.44c.23 0 3.05 5.63 3.04 6.04 0 .18-1.64 1.06-1.95 1.06-.1 0-.6-.8-1.07-1.77S18.43 65 18.4 65c-.25 0-1.62.78-1.62.93 0 .1.25.68.55 1.28s.56 1.2.56 1.32c0 .13-.46.53-1 .9l-1 .7-.8-1.57c-.42-.86-.82-1.56-.87-1.56-.06 0-.55.2-1.1.47l-1 .48.98 1.93.98 1.92-1 .5c-.54.25-1.06.47-1.16.47s-.85-1.42-1.67-3.14c-.82-1.73-1.46-3.17-1.43-3.2.2-.2 10.3-5 10.5-5zm60.86 1.73c.16.04 2.03.82 4.15 1.72s3.94 1.64 4.02 1.64c.1 0 .4-.57.68-1.27s.6-1.37.7-1.47c.1-.14 2.64.24 2.64.4 0 .18-2.47 5.8-2.6 5.92-.1.1-2.52-.84-5.4-2.06-2.87-1.22-5.3-2.3-5.37-2.37-.25-.25.87-2.6 1.2-2.53zm-2.74 5.16c.08 0 .53.35 1 .76l.84.74-1.38 1.6-1.37 1.6.76.62.75.64 1.12-1.2 1.1-1.23.95.62c.52.32.95.7.95.8s-.47.75-1.04 1.42l-1.05 1.22.88.75c.5.4.94.72 1 .72.06 0 .66-.7 1.33-1.54.67-.84 1.32-1.53 1.45-1.54.12 0 .6.32 1.04.7l.83.73-2.22 2.67c-1.22 1.46-2.3 2.68-2.38 2.7-.1.02-2.1-1.6-4.5-3.62-2.38-2-4.37-3.76-4.4-3.88-.1-.23 4.1-5.32 4.37-5.3zM20 73.68c.12 0 .85.74 1.6 1.64l1.4 1.63-.93.8c-1.07.92-1.13.94-1.54.37-.17-.23-.8-.98-1.38-1.65l-1.07-1.23.85-.8c.47-.42.95-.77 1.07-.76zm9.15 1.9c.54.14 2.3 1.16 2.3 1.4 0 .06-.5.92-1.1 1.9s-1.1 1.77-1.06 1.8c.26.23 3.1 1.87 3.14 1.82l1.1-1.8S34.7 79 34.8 79c.33 0 2.2 1.2 2.2 1.44 0 .3-5.9 9.74-6.15 9.83-.1.03-.67-.24-1.25-.6-.57-.37-1.04-.72-1.04-.78 0-.08.54-1 1.2-2.07L31 84.9l-1.5-.95c-.8-.52-1.53-.95-1.6-.95-.07 0-.6.77-1.17 1.7l-1.22 2.03c-.15.23-.44.15-1.34-.4-.62-.4-1.14-.8-1.14-.9 0-.17 5.66-9.46 6-9.84.02-.03.07-.03.15 0zm40.05 1.9c2.4-.08 4.53 1.56 5.6 4.4 1.13 2.96.08 5.2-3.43 7.32-2.26 1.37-2.46 1.44-2.74 1.08-.46-.6-5.9-9.77-5.8-9.83.75-.62 4.56-2.6 5.34-2.8.35-.1.7-.14 1.03-.16zm-.27 2.65c-.66 0-1.42.24-1.9.6l-.53.42 1.75 2.92c.97 1.6 1.87 2.92 2.02 2.92.14 0 .58-.28.97-.6.9-.75 1.38-1.87 1.2-2.7-.4-1.63-1.7-3.2-2.9-3.5-.18-.06-.4-.08-.6-.07zm-8.47 1.28l1 5.74c.57 3.16.97 5.8.9 5.88-.07.08-.63.22-1.24.3l-1.1.14-2.57-2.88c-1.4-1.58-2.6-2.85-2.63-2.8-.07.06.73 4.92 1 6 .1.43-.03.5-1.23.7-1.35.2-1.36.2-1.47-.36-.57-2.87-1.92-10.96-1.85-11.03.05-.07.65-.22 1.32-.36l1.23-.24 1 1.08c.56.6 1.64 1.8 2.4 2.68s1.46 1.56 1.5 1.5c.06-.04-.12-1.34-.4-2.9-.27-1.57-.4-2.87-.3-2.98.1-.1.7-.24 1.3-.33l1.13-.14zm-17.4.58c.83.03 2.37.25 2.53.4.1.1 1.62 11.03 1.63 11.67 0 .27-.08.48-.17.46-.1-.02-.73-.07-1.42-.1l-1.26-.1-.15-1.28-.15-1.3-1.6-.28c-.87-.16-1.7-.32-1.8-.36s-.5.42-.84 1.03c-.38.7-.76 1.1-1 1.1-.5 0-2.06-.36-2.2-.5-.1-.1 5.54-10.3 5.9-10.68.06-.04.25-.05.53-.04zm.28 3.42l-.86 1.6c-.48.88-.77 1.67-.67 1.77.18.16.53.25 1.8.4.16.03.2-.3.13-1-.06-.6-.18-1.45-.25-1.92l-.14-.85z"></path></g></svg>
