<svg xmlns="http://www.w3.org/2000/svg" width="51px" height="16px" viewBox="0 0 51 16"><g fill="#fff" fill-rule="evenodd"><path d="M33.153 0c1.898 0 3.719.674 3.719.674l-.59 3.32c-1.77-.95-5.796-1.174-5.796.574 0 1.747 5.77 2.121 5.77 6.14C36.256 14.578 32 16 29.18 16c-2.822 0-4.667-.873-4.667-.873l.615-3.47c1.692 1.322 6.82 1.697 6.82-.4s-5.717-2.146-5.717-6.14C26.23.873 31.102 0 33.153 0zM24.55.277l-2.585 15.457H17.83L20.414.277h4.135zm-17.957 0c1.793 0 1.96 1.392 1.96 1.392l1.392 6.95.466 2.289L14.352.277h4.45l-6.578 15.457H7.916L4.324 2.306C1.993.94 0 .538 0 .538L.076.277zm40.765 0l3.31 15.457H46.87l-.484-2.296H41.13l-.862 2.296h-4.31l6.166-14.305S42.498.277 44.033.277h3.324zM44.494 4.48l-2.173 5.785h3.395l-1.222-5.785z"></path><path d="M9.956 8.267L8.587 1.602S8.422.267 6.66.267H.253l-.075.25s3.08.606 6.033 2.876c2.824 2.17 3.745 4.874 3.745 4.874"></path></g></svg>
