<svg xmlns="http://www.w3.org/2000/svg" width="36px" height="25px" viewBox="0 0 36 25"><path fill="#FFF" fill-rule="evenodd" d="M14.13 7.227v10.585c3.105-1.77 6.187-3.525 9.299-5.297-3.122-1.774-6.209-3.53-9.3-5.288zm21.386 5.312c0 .723.015 1.448-.004 2.171-.02.728-.053 1.456-.116 2.182-.077.879-.17 1.758-.301 2.63-.103.68-.197 1.377-.432 2.018-.53 1.454-1.6 2.368-3.106 2.725-.614.146-1.252.21-1.883.278-.803.085-1.61.141-2.418.193-.789.05-1.58.089-2.371.114-1.478.047-2.956.09-4.434.114-1.486.026-2.972.041-4.458.035-1.306-.007-2.614-.043-3.923-.079-.974-.026-1.95-.067-2.926-.11-.614-.028-1.227-.059-1.84-.114-1.134-.102-2.272-.18-3.386-.44-1.127-.264-2-.905-2.645-1.863-.388-.577-.579-1.225-.693-1.9-.107-.632-.217-1.264-.3-1.898-.062-.482-.088-.969-.121-1.454-.053-.77-.124-1.541-.14-2.314-.025-1.236-.019-2.474-.016-3.71 0-.432.018-.863.042-1.293.044-.778.089-1.554.152-2.33.05-.604.106-1.207.195-1.805.141-.954.229-1.928.724-2.786.68-1.179 1.657-1.976 3.026-2.21.67-.116 1.342-.22 2.016-.297C6.735.33 7.317.309 7.898.273 8.693.223 9.49.174 10.288.13c.347-.02.696-.035 1.043-.042 1.333-.03 2.666-.068 4-.077 1.745-.013 3.492-.013 5.237 0 1.193.009 2.386.046 3.58.077.621.016 1.242.041 1.862.074.834.045 1.669.092 2.502.155.616.046 1.234.096 1.845.19.75.118 1.511.192 2.195.572 1.233.682 2.032 1.698 2.312 3.086.155.757.273 1.522.38 2.287.067.481.093.967.12 1.452.067 1.165.129 2.33.181 3.493.017.38.003.762.003 1.143h-.032z"></path></svg>
